<svg width="100%" viewBox="0 0 408 258" fill="none" xmlns="http://www.w3.org/2000/svg"><g filter="url(#filter0_d)"><g clip-path="url(#lightThemeClip)"><rect x="4" y="3" width="400" height="250" rx="3" fill="white"></rect><g filter="url(#filter1_i)"><rect x="4" y="3" width="400" height="24" fill="white"></rect></g><g filter="url(#filter2_i)"><rect x="104" y="27" width="300" height="116" fill="white"></rect></g><g filter="url(#filter3_i)"><rect x="4" y="237" width="400" height="16" fill="white"></rect></g><g filter="url(#filter4_i)"><rect x="104" y="27" width="72" height="16" fill="white"></rect></g><rect x="176" y="27" width="72" height="16" fill="#F9F9F9"></rect><rect x="248" y="27" width="72" height="16" fill="#F9F9F9"></rect><rect x="320" y="27" width="72" height="16" fill="#F9F9F9"></rect><rect x="392" y="27" width="72" height="16" fill="#F9F9F9"></rect><rect x="30" y="11" width="20" height="8" rx="2" fill="#E5E5E5"></rect><rect x="112" y="151" width="20" height="6" rx="1" fill="#E5E5E5"></rect><rect x="112" y="170" width="31" height="6" rx="1" fill="#E5E5E5"></rect><rect x="112" y="94" width="31" height="6" rx="1" fill="#E5E5E5"></rect><rect x="155" y="94" width="89" height="6" rx="1" fill="#E5E5E5"></rect><rect x="112" y="108" width="18" height="6" rx="1" fill="#E5E5E5"></rect><rect x="155" y="108" width="82" height="6" rx="1" fill="#E5E5E5"></rect><rect x="112" y="122" width="25" height="6" rx="1" fill="#E5E5E5"></rect><rect x="155" y="122" width="97" height="6" rx="1" fill="#E5E5E5"></rect><rect x="128" y="180" width="20" height="6" rx="1" fill="#E5E5E5"></rect><rect x="128" y="190" width="66" height="6" rx="1" fill="#E5E5E5"></rect><rect x="128" y="200" width="45" height="6" rx="1" fill="#E5E5E5"></rect><rect x="128" y="210" width="20" height="6" rx="1" fill="#E5E5E5"></rect><rect x="112" y="220" width="20" height="6" rx="1" fill="#E5E5E5"></rect><rect x="112" y="230" width="51" height="6" rx="1" fill="#E5E5E5"></rect><rect x="112" y="84" width="20" height="2" fill="#FF6C37"></rect><rect x="112" y="160" width="20" height="2" fill="#FF6C37"></rect><rect x="58" y="11" width="20" height="8" rx="2" fill="#E5E5E5"></rect><rect x="140" y="75" width="20" height="6" rx="1" fill="#E5E5E5"></rect><rect x="112" y="75" width="20" height="6" rx="1" fill="#E5E5E5"></rect><rect x="112" y="34" width="52" height="4" rx="0.5" fill="#E5E5E5"></rect><rect x="184" y="34" width="44" height="4" rx="0.5" fill="#E5E5E5"></rect><rect x="244" y="34" width="36" height="4" rx="0.5" fill="#E5E5E5"></rect><rect x="140" y="151" width="20" height="6" rx="1" fill="#E5E5E5"></rect><rect x="86" y="11" width="20" height="8" rx="2" fill="#E5E5E5"></rect><rect x="168" y="75" width="20" height="6" rx="1" fill="#E5E5E5"></rect><rect x="168" y="151" width="20" height="6" rx="1" fill="#E5E5E5"></rect><rect x="114" y="11" width="20" height="8" rx="2" fill="#E5E5E5"></rect><rect x="196" y="75" width="20" height="6" rx="1" fill="#E5E5E5"></rect><rect x="196" y="151" width="20" height="6" rx="1" fill="#E5E5E5"></rect><rect x="224" y="75" width="20" height="6" rx="1" fill="#E5E5E5"></rect><rect x="252" y="75" width="20" height="6" rx="1" fill="#E5E5E5"></rect><rect x="376" y="11" width="20" height="8" rx="2" fill="#E5E5E5"></rect><rect x="339" y="31" width="57" height="8" rx="2" fill="#E5E5E5"></rect><rect x="329" y="11" width="8" height="8" rx="2" fill="#E5E5E5"></rect><rect x="345" y="11" width="8" height="8" rx="2" fill="#E5E5E5"></rect><rect x="10" y="9" width="12" height="12" rx="6" fill="#FF6C37"></rect><rect x="360" y="11" width="8" height="8" rx="4" fill="#E5E5E5"></rect><circle cx="317" cy="15" r="4" fill="#E5FFF1"></circle><circle cx="317" cy="15" r="2" fill="#0CBB52"></circle><g filter="url(#filter5_i)"><rect x="4" y="27" width="100" height="210" fill="#F9F9F9"></rect></g><rect x="112" y="51" width="248" height="16" rx="1.9845" fill="#E5E5E5"></rect><rect x="368" y="51" width="28" height="15.814" rx="1.9845" fill="#097BED"></rect><rect x="12" y="35" width="44" height="8" rx="2" fill="#E5E5E5"></rect><rect x="88" y="35" width="8" height="8" rx="2" fill="#E5E5E5"></rect><rect x="12" y="51" width="8" height="8" rx="2" fill="#E5E5E5"></rect><rect x="12" y="67" width="8" height="8" rx="2" fill="#E5E5E5"></rect><rect x="12" y="83" width="8" height="8" rx="2" fill="#E5E5E5"></rect><rect x="12" y="99" width="8" height="8" rx="2" fill="#E5E5E5"></rect><rect x="12" y="115" width="8" height="8" rx="2" fill="#E5E5E5"></rect><rect x="12" y="131" width="8" height="8" rx="2" fill="#E5E5E5"></rect><rect x="70.9048" y="35" width="12.1429" height="8" rx="2" fill="#E5E5E5"></rect><rect x="28" y="51" width="57.4762" height="6" rx="1" fill="#E5E5E5"></rect><rect x="28" y="61" width="38.0476" height="6" rx="1" fill="#E5E5E5"></rect><rect x="28" y="71" width="49.381" height="6" rx="1" fill="#E5E5E5"></rect><rect x="28" y="81" width="68" height="6" rx="1" fill="#E5E5E5"></rect><rect x="28" y="91" width="45.3333" height="6" rx="1" fill="#E5E5E5"></rect><rect x="28" y="101" width="55.0476" height="6" rx="1" fill="#E5E5E5"></rect><rect x="28" y="111" width="51" height="6" rx="1" fill="#E5E5E5"></rect><rect x="28" y="121" width="32.381" height="6" rx="1" fill="#E5E5E5"></rect><rect x="28" y="131" width="45.3333" height="6" rx="1" fill="#E5E5E5"></rect></g></g><defs><filter id="filter0_d" x="0" y="0" width="408" height="258" filterUnits="userSpaceOnUse" color-interpolation-filters="sRGB"><feFlood flood-opacity="0" result="BackgroundImageFix"></feFlood><feColorMatrix in="SourceAlpha" type="matrix" values="0 0 0 0 0 0 0 0 0 0 0 0 0 0 0 0 0 0 127 0"></feColorMatrix><feOffset dy="1"></feOffset><feGaussianBlur stdDeviation="2"></feGaussianBlur><feColorMatrix type="matrix" values="0 0 0 0 0 0 0 0 0 0 0 0 0 0 0 0 0 0 0.2 0"></feColorMatrix><feBlend mode="normal" in2="BackgroundImageFix" result="effect1_dropShadow"></feBlend><feBlend mode="normal" in="SourceGraphic" in2="effect1_dropShadow" result="shape"></feBlend></filter><filter id="filter1_i" x="4" y="3" width="400" height="24" filterUnits="userSpaceOnUse" color-interpolation-filters="sRGB"><feFlood flood-opacity="0" result="BackgroundImageFix"></feFlood><feBlend mode="normal" in="SourceGraphic" in2="BackgroundImageFix" result="shape"></feBlend><feColorMatrix in="SourceAlpha" type="matrix" values="0 0 0 0 0 0 0 0 0 0 0 0 0 0 0 0 0 0 127 0" result="hardAlpha"></feColorMatrix><feOffset dy="-1"></feOffset><feComposite in2="hardAlpha" operator="arithmetic" k2="-1" k3="1"></feComposite><feColorMatrix type="matrix" values="0 0 0 0 0.92549 0 0 0 0 0.92549 0 0 0 0 0.92549 0 0 0 1 0"></feColorMatrix><feBlend mode="normal" in2="shape" result="effect1_innerShadow"></feBlend></filter><filter id="filter2_i" x="104" y="27" width="300" height="116" filterUnits="userSpaceOnUse" color-interpolation-filters="sRGB"><feFlood flood-opacity="0" result="BackgroundImageFix"></feFlood><feBlend mode="normal" in="SourceGraphic" in2="BackgroundImageFix" result="shape"></feBlend><feColorMatrix in="SourceAlpha" type="matrix" values="0 0 0 0 0 0 0 0 0 0 0 0 0 0 0 0 0 0 127 0" result="hardAlpha"></feColorMatrix><feOffset dy="-1"></feOffset><feComposite in2="hardAlpha" operator="arithmetic" k2="-1" k3="1"></feComposite><feColorMatrix type="matrix" values="0 0 0 0 0.92549 0 0 0 0 0.92549 0 0 0 0 0.92549 0 0 0 1 0"></feColorMatrix><feBlend mode="normal" in2="shape" result="effect1_innerShadow"></feBlend></filter><filter id="filter3_i" x="4" y="237" width="400" height="16" filterUnits="userSpaceOnUse" color-interpolation-filters="sRGB"><feFlood flood-opacity="0" result="BackgroundImageFix"></feFlood><feBlend mode="normal" in="SourceGraphic" in2="BackgroundImageFix" result="shape"></feBlend><feColorMatrix in="SourceAlpha" type="matrix" values="0 0 0 0 0 0 0 0 0 0 0 0 0 0 0 0 0 0 127 0" result="hardAlpha"></feColorMatrix><feOffset dy="1"></feOffset><feComposite in2="hardAlpha" operator="arithmetic" k2="-1" k3="1"></feComposite><feColorMatrix type="matrix" values="0 0 0 0 0.92549 0 0 0 0 0.92549 0 0 0 0 0.92549 0 0 0 1 0"></feColorMatrix><feBlend mode="normal" in2="shape" result="effect1_innerShadow"></feBlend></filter><filter id="filter4_i" x="104" y="27" width="72" height="16" filterUnits="userSpaceOnUse" color-interpolation-filters="sRGB"><feFlood flood-opacity="0" result="BackgroundImageFix"></feFlood><feBlend mode="normal" in="SourceGraphic" in2="BackgroundImageFix" result="shape"></feBlend><feColorMatrix in="SourceAlpha" type="matrix" values="0 0 0 0 0 0 0 0 0 0 0 0 0 0 0 0 0 0 127 0" result="hardAlpha"></feColorMatrix><feOffset dy="2"></feOffset><feComposite in2="hardAlpha" operator="arithmetic" k2="-1" k3="1"></feComposite><feColorMatrix type="matrix" values="0 0 0 0 1 0 0 0 0 0.423529 0 0 0 0 0.215686 0 0 0 1 0"></feColorMatrix><feBlend mode="normal" in2="shape" result="effect1_innerShadow"></feBlend></filter><filter id="filter5_i" x="4" y="27" width="100" height="210" filterUnits="userSpaceOnUse" color-interpolation-filters="sRGB"><feFlood flood-opacity="0" result="BackgroundImageFix"></feFlood><feBlend mode="normal" in="SourceGraphic" in2="BackgroundImageFix" result="shape"></feBlend><feColorMatrix in="SourceAlpha" type="matrix" values="0 0 0 0 0 0 0 0 0 0 0 0 0 0 0 0 0 0 127 0" result="hardAlpha"></feColorMatrix><feOffset dx="-1"></feOffset><feComposite in2="hardAlpha" operator="arithmetic" k2="-1" k3="1"></feComposite><feColorMatrix type="matrix" values="0 0 0 0 0.92549 0 0 0 0 0.92549 0 0 0 0 0.92549 0 0 0 1 0"></feColorMatrix><feBlend mode="normal" in2="shape" result="effect1_innerShadow"></feBlend></filter><clipPath id="lightThemeClip"><rect x="4" y="3" width="400" height="250" rx="3" fill="white"></rect></clipPath></defs></svg>